#define _width 5
#define _height 5
static unsigned char _bits[] = {
   0x02, 0x04, 0x08, 0x04, 0x02 };
