<?xml version="1.0" encoding="UTF-8" standalone="no"?>
<!-- Created with Inkscape (http://www.inkscape.org/) -->
<svg xmlns:svg="http://www.w3.org/2000/svg" xmlns="http://www.w3.org/2000/svg" version="1.0" width="300" height="300" id="svg2">
  <defs id="defs5"/>
  <path d="M 52.80462,147.77399 C 36.084778,136.65001 72.561429,127.79168 148.50796,124.53251 C 171.5642,123.54307 204.57653,121.83291 221.86871,120.73214 C 247.50603,119.10015 254.59858,119.75704 260.29576,124.29111 C 267.20164,129.7871 267.20402,129.91211 260.50142,135.09151 C 256.02101,138.55372 245.77586,140.33157 230.30458,140.33157 C 217.42591,140.33157 191.39511,141.80988 172.45834,143.6167 C 113.34595,149.25683 57.927476,151.1823 52.80462,147.77399 z " style="fill:black;fill-opacity:1" id="path1879"/>
  <path d="M 52.80462,147.77399 C 36.084778,136.65001 72.561429,127.79168 148.50796,124.53251 C 171.5642,123.54307 204.57653,121.83291 221.86871,120.73214 C 247.50603,119.10015 254.59858,119.75704 260.29576,124.29111 C 267.20164,129.7871 267.20402,129.91211 260.50142,135.09151 C 256.02101,138.55372 245.77586,140.33157 230.30458,140.33157 C 217.42591,140.33157 191.39511,141.80988 172.45834,143.6167 C 113.34595,149.25683 57.927476,151.1823 52.80462,147.77399 z " style="fill:black;fill-opacity:1" id="path1877"/>
  <path d="M 52.80462,147.77399 C 36.084778,136.65001 72.561429,127.79168 148.50796,124.53251 C 171.5642,123.54307 204.57653,121.83291 221.86871,120.73214 C 247.50603,119.10015 254.59858,119.75704 260.29576,124.29111 C 267.20164,129.7871 267.20402,129.91211 260.50142,135.09151 C 256.02101,138.55372 245.77586,140.33157 230.30458,140.33157 C 217.42591,140.33157 191.39511,141.80988 172.45834,143.6167 C 113.34595,149.25683 57.927476,151.1823 52.80462,147.77399 z " style="fill:black;fill-opacity:1" id="path1875"/>
</svg>