<?xml version="1.0" encoding="UTF-8" standalone="no"?>
<!-- Created with Inkscape (http://www.inkscape.org/) -->
<svg
   xmlns:dc="http://purl.org/dc/elements/1.1/"
   xmlns:cc="http://web.resource.org/cc/"
   xmlns:rdf="http://www.w3.org/1999/02/22-rdf-syntax-ns#"
   xmlns:svg="http://www.w3.org/2000/svg"
   xmlns="http://www.w3.org/2000/svg"
   xmlns:sodipodi="http://sodipodi.sourceforge.net/DTD/sodipodi-0.dtd"
   xmlns:inkscape="http://www.inkscape.org/namespaces/inkscape"
   id="svg2"
   sodipodi:version="0.32"
   inkscape:version="0.45"
   width="300"
   height="300"
   version="1.0"
   sodipodi:docbase="/home/lyhana8/Desktop"
   sodipodi:docname="亅-seal.svg"
   inkscape:output_extension="org.inkscape.output.svg.inkscape"
   sodipodi:modified="true">
  <metadata
     id="metadata7">
    <rdf:RDF>
      <cc:Work
         rdf:about="">
        <dc:format>image/svg+xml</dc:format>
        <dc:type
           rdf:resource="http://purl.org/dc/dcmitype/StillImage" />
      </cc:Work>
    </rdf:RDF>
  </metadata>
  <defs
     id="defs5" />
  <sodipodi:namedview
     inkscape:window-height="771"
     inkscape:window-width="919"
     inkscape:pageshadow="2"
     inkscape:pageopacity="0.0"
     guidetolerance="10.0"
     gridtolerance="10.0"
     objecttolerance="10.0"
     borderopacity="1.0"
     bordercolor="#666666"
     pagecolor="#ffffff"
     id="base"
     width="300px"
     height="300px"
     inkscape:zoom="1.607021"
     inkscape:cx="43.139272"
     inkscape:cy="173.43847"
     inkscape:window-x="280"
     inkscape:window-y="0"
     inkscape:current-layer="svg2" />
  <path
     style="fill:#000000"
     d="M 148.63787,288.41023 C 120.96345,281.3118 101.81329,261.61498 93.435377,228.72576 C 87.622602,209.50647 84.380172,189.62682 79.309262,170.22356 C 79.599888,154.7464 108.24906,157.93282 104.71586,169.12216 C 107.78557,190.94234 108.71594,211.46473 118.31061,231.43611 C 122.63766,243.03246 129.25076,258.63933 142.45109,261.22789 C 153.58435,265.83556 167.35753,267.6179 177.04023,258.80628 C 187.37503,252.03722 191.14364,239.67365 191.23981,227.9135 C 192.53094,213.37624 188.70347,198.82568 181.19915,186.38261 C 168.07635,160.7072 160.00643,131.69253 163.6388,102.70341 C 165.55133,89.106508 165.3801,74.932481 169.99246,61.903482 C 176.51238,49.530251 183.24125,37.163741 190.96374,25.481914 C 196.85871,17.583973 205.49449,12.53295 215.46248,10.282867 C 225.17573,16.243982 219.56974,30.441012 213.03721,35.553444 C 183.22806,67.040255 173.85456,116.1127 190.22114,156.32234 C 199.44745,182.26549 215.76637,207.08043 213.19877,235.76238 C 212.15483,256.11449 194.81449,283.58153 173.3301,288.43085 C 166.48485,290.13743 155.47696,290.16123 148.63787,288.41023 z "
     id="path2207"
     sodipodi:nodetypes="cccccccccccccccccc" />
</svg>
